<?xml version="1.0" encoding="UTF-8"?>
<svg xmlns="http://www.w3.org/2000/svg" id="Capa_2" width="700" height="251.0668" viewBox="0 0 700 251.0668">
  <defs>
    <style>.cls-1{fill:#37493e;}.cls-2{fill:#299f88;}</style>
  </defs>
  <g id="Capa_2-2">
    <path class="cls-1" d="m293.4326,150.4426c-1.5713,0-2.8733-.4938-3.8759-1.5115-1.0026-1.0026-1.5115-2.2896-1.5115-3.8759V5.3724c0-1.5713.4938-2.8583,1.5115-3.8759,1.0026-1.0027,2.2896-1.4965,3.8759-1.4965h23.8541c1.5713,0,2.8583.5088,3.8759,1.4965,1.0026,1.0027,1.5115,2.2896,1.5115,3.8759v116.2776h66.6239c1.5713,0,2.8583.5088,3.8759,1.5115,1.0027,1.0026,1.5115,2.2896,1.5115,3.8759v18.0477c0,1.5713-.5088,2.8733-1.5115,3.8759s-2.2896,1.5115-3.8759,1.5115h-95.8654v-.0299Z"></path>
    <path class="cls-1" d="m417.881,150.4426c-1.287,0-2.3644-.4639-3.2175-1.3917s-1.287-1.9754-1.287-3.1127c0-.7183.0748-1.3618.2095-1.9305L464.7363,5.8064c.434-1.5713,1.287-2.9331,2.574-4.0854C468.5972.5836,470.393,0,472.6827,0h27.5056c2.2896,0,4.0854.5687,5.3724,1.721s2.155,2.5141,2.574,4.0854l51.1502,138.2012c.1347.5687.2095,1.2271.2095,1.9305,0,1.1523-.434,2.1849-1.287,3.1127-.8679.9278-1.9305,1.3917-3.2175,1.3917h-22.3576c-2.155,0-3.7263-.4938-4.7289-1.5115-1.0027-1.0026-1.6462-1.9305-1.9305-2.7984l-9.2483-24.0786h-60.608l-9.2483,24.0786c-.2843.853-.9278,1.7958-1.9305,2.7984s-2.574,1.5115-4.7289,1.5115h-22.3278Zm46.2117-56.0886h44.4908l-22.1332-61.895-22.3576,61.895Z"></path>
    <path class="cls-1" d="m583.3783,150.4426c-1.5713,0-2.8733-.4938-3.8759-1.5115-1.0027-1.0026-1.5115-2.2896-1.5115-3.8759V5.3724c0-1.5713.4938-2.8583,1.5115-3.8759,1.0027-1.0027,2.2896-1.4965,3.8759-1.4965h58.6775c11.6128,0,21.6693,1.7958,30.1992,5.3724,8.53,3.5766,15.1894,8.9939,19.9931,16.222,4.8037,7.243,7.1981,16.222,7.1981,26.9668,0,10.8945-2.3944,19.8884-7.1981,26.9668-4.8037,7.0934-11.4632,12.361-19.9931,15.803-8.53,3.4419-18.5865,5.1629-30.1992,5.1629h-28.8075v48.5762c0,1.5713-.5088,2.8733-1.4965,3.8759-1.0027,1.0026-2.2896,1.5115-3.8759,1.5115h-24.4976v-.015Zm29.2265-80.5862h28.3735c7.3029,0,13.0045-1.7958,17.09-5.3724s6.1207-8.949,6.1207-16.1172c0-6.3002-1.8257-11.4631-5.4772-15.4737s-9.5626-6.0159-17.7335-6.0159h-28.3735v42.9793Z"></path>
    <polygon class="cls-2" points="245.4699 236.0121 180.7765 236.0121 180.7765 220.0894 229.5472 220.0894 229.5472 173.2791 245.4699 173.2791 245.4699 236.0121"></polygon>
    <path class="cls-2" d="m31.6957,236.925C14.2167,236.925.015,222.7083.015,205.2292s14.2167-31.6957,31.6808-31.6957,31.6808,14.2167,31.6808,31.6957-14.2167,31.6957-31.6808,31.6957Zm0-47.4389c-8.6946,0-15.7581,7.0635-15.7581,15.7581s7.0635,15.7581,15.7581,15.7581,15.7581-7.0635,15.7581-15.7581-7.0784-15.7581-15.7581-15.7581Z"></path>
    <path class="cls-1" d="m120.4079,236.925c-17.4791,0-31.6808-14.2167-31.6808-31.6957s14.2167-31.6957,31.6808-31.6957,31.6808,14.2167,31.6808,31.6957-14.2017,31.6957-31.6808,31.6957Zm0-47.4389c-8.6946,0-15.7581,7.0635-15.7581,15.7581s7.0635,15.7581,15.7581,15.7581,15.7581-7.0635,15.7581-15.7581-7.0635-15.7581-15.7581-15.7581Z"></path>
    <path class="cls-1" d="m31.6957,150.3378C14.2167,150.3378.015,136.1211.015,118.6421s14.2167-31.6957,31.6808-31.6957,31.6808,14.2167,31.6808,31.6957-14.2167,31.6957-31.6808,31.6957Zm0-47.4538c-8.6946,0-15.7581,7.0635-15.7581,15.7581s7.0635,15.7581,15.7581,15.7581,15.7581-7.0635,15.7581-15.7581c0-8.6946-7.0784-15.7581-15.7581-15.7581Z"></path>
    <path class="cls-2" d="m120.4079,150.3378c-17.4791,0-31.6808-14.2167-31.6808-31.6957s14.2167-31.6957,31.6808-31.6957,31.6808,14.2167,31.6808,31.6957-14.2017,31.6957-31.6808,31.6957Zm0-47.4538c-8.6946,0-15.7581,7.0635-15.7581,15.7581s7.0635,15.7581,15.7581,15.7581,15.7581-7.0635,15.7581-15.7581c.015-8.6946-7.0635-15.7581-15.7581-15.7581Z"></path>
    <path class="cls-1" d="m213.6994,150.3378c-17.479,0-31.6808-14.2167-31.6808-31.6957s14.2167-31.6957,31.6808-31.6957c17.479,0,31.6808,14.2167,31.6808,31.6957s-14.2167,31.6957-31.6808,31.6957Zm0-47.4538c-8.6946,0-15.7581,7.0635-15.7581,15.7581s7.0635,15.7581,15.7581,15.7581,15.7581-7.0635,15.7581-15.7581-7.0784-15.7581-15.7581-15.7581Z"></path>
    <polygon class="cls-2" points="15.9227 66.0253 0 66.0253 0 .3891 61.9399 .3891 61.9399 16.3118 15.9227 16.3118 15.9227 66.0253"></polygon>
    <path class="cls-1" d="m119.9739,63.7656c-17.4791,0-31.6808-14.2167-31.6808-31.6957S102.5099.3741,119.9739.3741s31.6808,14.2167,31.6808,31.6957-14.2167,31.6957-31.6808,31.6957Zm0-47.4538c-8.6946,0-15.7581,7.0635-15.7581,15.7581s7.0635,15.7581,15.7581,15.7581,15.7581-7.0635,15.7581-15.7581-7.0784-15.7581-15.7581-15.7581Z"></path>
    <path class="cls-2" d="m213.2504,63.7656c-17.4791,0-31.6808-14.2167-31.6808-31.6957S195.7863.3741,213.2504.3741c17.4791,0,31.6808,14.2167,31.6808,31.6957s-14.2167,31.6957-31.6808,31.6957Zm0-47.4538c-8.6946,0-15.7581,7.0635-15.7581,15.7581s7.0635,15.7581,15.7581,15.7581,15.7581-7.0635,15.7581-15.7581-7.0634-15.7581-15.7581-15.7581Z"></path>
    <path class="cls-2" d="m288.8982,236.1767c-.5687,0-1.0475-.1796-1.4067-.5537-.3592-.3592-.5537-.838-.5537-1.4067v-50.8808c0-.5687.1796-1.0475.5537-1.4067.3592-.3592.838-.5537,1.4067-.5537h20.7414c6.5247,0,11.6577,1.4965,15.4139,4.5044,3.7562,3.0079,5.6418,7.3179,5.6418,12.9596,0,3.8161-.9129,6.9886-2.7386,9.5476s-4.28,4.4595-7.3627,5.7166l11.0441,19.5741c.1497.3143.2394.5986.2394.868,0,.419-.1497.7931-.4639,1.1373-.3143.3442-.7034.5088-1.1822.5088h-8.6946c-.9428,0-1.6462-.2394-2.1101-.7482-.4639-.4938-.8081-.9578-1.0176-1.3768l-9.5476-17.928h-9.4728v18.0777c0,.5687-.1796,1.0475-.5537,1.4067-.3592.3592-.838.5537-1.4067.5537h-8.5301Zm10.4904-29.9748h10.0265c2.8733,0,4.9983-.6585,6.3751-1.9604s2.0801-3.1277,2.0801-5.4772-.6734-4.2051-2.0352-5.552c-1.3618-1.3618-3.5018-2.0352-6.4199-2.0352h-10.0265v15.0248Z"></path>
    <path class="cls-2" d="m357.0785,236.9699c-6.001,0-10.7598-1.6761-14.2915-5.0133-3.5168-3.3372-5.3874-8.2008-5.5969-14.5609v-3.3671c.2095-4.0106,1.1224-7.4825,2.7386-10.3707,1.6162-2.9032,3.8909-5.118,6.809-6.6594,2.9182-1.5414,6.3451-2.3046,10.251-2.3046,4.3847,0,8.0511.8979,10.9992,2.6937s5.1629,4.25,6.6594,7.3627c1.4815,3.1127,2.2298,6.6744,2.2298,10.685v1.7958c0,.5238-.1946.9727-.5837,1.3319s-.853.5537-1.3768.5537h-25.5901v.6285c.0449,1.6761.3741,3.2025.9727,4.5793s1.4666,2.4991,2.589,3.3222c1.1224.838,2.4692,1.257,4.0256,1.257,1.3019,0,2.3794-.1796,3.2025-.5537.838-.3592,1.5264-.8081,2.0801-1.3319.5537-.5238.9578-.9578,1.2122-1.3319.4639-.5238.853-.853,1.1374-.9727.2843-.1347.7482-.1946,1.3768-.1946h8.1409c.5238,0,.9578.1497,1.287.434.3442.2843.4789.6884.434,1.2122-.0449.838-.4789,1.8706-1.287,3.0978-.8081,1.2271-1.9903,2.4243-3.5617,3.6066-1.5713,1.1673-3.5168,2.155-5.8363,2.9331-2.3196.7781-4.9983,1.1672-8.0213,1.1672Zm-7.7518-24.9765h15.3391v-.1497c0-1.8706-.2993-3.5018-.8979-4.8935-.5986-1.3768-1.4815-2.4692-2.6189-3.2474-1.1523-.7782-2.5291-1.1673-4.1453-1.1673s-3.008.3891-4.1453,1.1673c-1.1523.7782-2.0203,1.8706-2.6189,3.2474s-.8979,3.0079-.8979,4.8935v.1497h-.015Z"></path>
    <path class="cls-2" d="m386.6642,251.0519c-.5687,0-1.0476-.1796-1.4067-.5537-.3741-.3592-.5537-.838-.5537-1.4067v-51.659c0-.5687.1796-1.0475.5537-1.4067.3591-.3592.838-.5537,1.4067-.5537h7.4376c.5687,0,1.0476.1796,1.4067.5537.3591.3592.5537.838.5537,1.4067v2.978c1.257-1.6761,2.8733-3.0379,4.8486-4.1154,1.9754-1.0625,4.4596-1.6013,7.4376-1.6013,2.7087,0,5.0731.434,7.0784,1.287,2.0053.868,3.7113,2.0801,5.0881,3.6814,1.3768,1.5863,2.4543,3.5168,3.2025,5.7615s1.1822,4.7738,1.287,7.5872c.0599.9877.0748,1.9305.0748,2.8134s-.0299,1.8557-.0748,2.9032c-.0599,2.6638-.4639,5.118-1.2122,7.3627-.7632,2.2447-1.8407,4.1752-3.2474,5.7914s-3.1127,2.8733-5.133,3.7562c-2.0053.8829-4.3698,1.3319-7.0784,1.3319-2.6638,0-4.9684-.4789-6.9288-1.4516s-3.5617-2.2896-4.8187-3.9507v17.5389c0,.5687-.1796,1.0475-.5537,1.4067-.3591.3592-.8081.5537-1.3319.5537h-8.0361v-.015Zm18.1674-23.48c1.9903,0,3.5467-.434,4.699-1.287,1.1523-.868,1.9754-1.9903,2.4692-3.412.4938-1.4067.7931-2.9481.8979-4.6242.1048-1.6162.1048-3.2324,0-4.8486-.1048-1.6761-.404-3.2025-.8979-4.6242-.4938-1.4067-1.3169-2.544-2.4692-3.397-1.1523-.868-2.7087-1.287-4.699-1.287-1.9305,0-3.5018.449-4.699,1.3319-1.1972.8829-2.0652,2.0053-2.589,3.3671s-.838,2.8134-.9428,4.3847c-.0599.9428-.0748,1.9006-.0748,2.8882s.0299,1.9903.0748,2.978c.0449,1.4666.3741,2.8284.9727,4.1154s1.4815,2.3345,2.6638,3.1726c1.1823.8231,2.7087,1.2421,4.5943,1.2421Z"></path>
    <path class="cls-2" d="m452.031,236.9699c-4.3249,0-7.9614-.7183-10.8795-2.155-2.9182-1.4366-5.1479-3.4868-6.6893-6.1506s-2.3944-5.7615-2.5441-9.3232c-.0599-1.0475-.0748-2.2298-.0748-3.5617s.0299-2.4842.0748-3.4868c.1497-3.6066,1.0476-6.7193,2.6638-9.3531s3.8909-4.6691,6.809-6.1057c2.9182-1.4366,6.4649-2.155,10.6401-2.155,4.1303,0,7.6471.7183,10.5652,2.155s5.1928,3.4719,6.809,6.1057,2.4992,5.7465,2.6638,9.3531c.1048.9877.1497,2.155.1497,3.4868s-.0599,2.5141-.1497,3.5617c-.1497,3.5467-1.0027,6.6594-2.5441,9.3232s-3.7711,4.7139-6.6893,6.1506c-2.9181,1.4366-6.5246,2.155-10.8046,2.155Zm0-8.6198c2.559,0,4.4895-.7931,5.7914-2.3944,1.3019-1.5863,2.0053-3.9208,2.1101-7.0036.0449-.7782.0748-1.8257.0748-3.1277s-.0299-2.3495-.0748-3.1277c-.1048-3.0229-.8081-5.3425-2.1101-6.9737-1.3019-1.6162-3.2324-2.4243-5.7914-2.4243s-4.5045.8081-5.8363,2.4243c-1.3319,1.6162-2.0502,3.9358-2.155,6.9737-.0599.7782-.0748,1.8257-.0748,3.1277s.0299,2.3495.0748,3.1277c.1048,3.0828.8231,5.4173,2.155,7.0036,1.3319,1.6013,3.2773,2.3944,5.8363,2.3944Z"></path>
    <path class="cls-2" d="m496.4919,236.9699c-3.2324,0-6.0159-.3741-8.3355-1.1373-2.3195-.7482-4.2051-1.691-5.6418-2.7835s-2.4992-2.1998-3.2025-3.3222-1.0775-2.0801-1.1374-2.8583c-.0599-.5687.1347-1.0475.5537-1.4067s.838-.5537,1.257-.5537h7.5872c.1497,0,.3143.0299.4639.0748.1497.0598.3143.1796.4639.3891.6734.4639,1.3768,1.0026,2.1101,1.6013.7333.5986,1.5713,1.1074,2.5441,1.5264.9578.419,2.1849.6285,3.6365.6285,1.721,0,3.1875-.3592,4.3847-1.0625s1.7958-1.706,1.7958-3.0079c0-.9428-.2694-1.721-.8231-2.3495s-1.5713-1.1972-3.0978-1.721c-1.5115-.5238-3.7562-1.0924-6.7342-1.721-2.8134-.6285-5.2228-1.4666-7.1981-2.4991-1.9903-1.0475-3.4719-2.3645-4.4596-3.9507s-1.4815-3.5018-1.4815-5.7615c0-2.0352.6435-3.9956,1.9155-5.8663s3.1726-3.427,5.6717-4.6541,5.6418-1.8407,9.398-1.8407c2.8733,0,5.3874.3592,7.5573,1.0625,2.1699.7034,3.9807,1.5863,5.4323,2.6638,1.4666,1.0625,2.574,2.1699,3.3222,3.2923s1.1673,2.0951,1.2122,2.9331c.0599.5238-.1048.9727-.4639,1.3319s-.7782.5537-1.257.5537h-6.9737c-.2694,0-.4938-.0449-.7034-.1197s-.3891-.1946-.5537-.3592c-.6285-.419-1.272-.8979-1.9155-1.4516-.6585-.5537-1.4217-1.0326-2.3046-1.4516s-2.0352-.6285-3.4419-.6285c-1.721,0-3.0379.3741-3.9508,1.1373-.9128.7632-1.3768,1.706-1.3768,2.8583,0,.7333.2394,1.4067.7034,2.0352s1.4366,1.1972,2.9032,1.721c1.4666.5238,3.6814,1.0625,6.6594,1.6462,3.5467.6285,6.3601,1.5713,8.4552,2.8134s3.5916,2.6937,4.5045,4.3398c.9128,1.6462,1.3618,3.412,1.3618,5.2826,0,2.4542-.7333,4.6391-2.1998,6.5397-1.4666,1.9006-3.5916,3.397-6.3751,4.4595-2.7685,1.0775-6.1955,1.6162-10.2659,1.6162Z"></path>
    <path class="cls-2" d="m524.5212,189.2167c-.5238,0-.9727-.1796-1.3319-.5537-.3591-.3592-.5537-.838-.5537-1.4067v-6.2553c0-.5687.1796-1.0625.5537-1.4516.3591-.3891.8081-.5836,1.3319-.5836h8.2157c.5687,0,1.0625.1946,1.4516.5836s.5837.8829.5837,1.4516v6.2553c0,.5687-.1946,1.0475-.5837,1.4067s-.8679.5537-1.4516.5537h-8.2157Zm.2245,46.96c-.5238,0-.9727-.1796-1.3319-.5537-.3741-.3592-.5537-.838-.5537-1.4067v-36.7838c0-.5687.1796-1.0475.5537-1.4067.3591-.3592.8081-.5537,1.3319-.5537h7.8267c.5687,0,1.0476.1796,1.4067.5537.3591.3592.5537.838.5537,1.4067v36.7838c0,.5687-.1796,1.0475-.5537,1.4067-.3591.3592-.838.5537-1.4067.5537h-7.8267Z"></path>
    <path class="cls-2" d="m563.894,236.1767c-3.2324,0-6.001-.5387-8.3055-1.6013-2.2896-1.0625-4.0256-2.7236-5.2078-4.9684-1.1673-2.2447-1.7659-5.0582-1.7659-8.4552v-16.4465h-6.1057c-.5687,0-1.0476-.1796-1.4067-.5537-.3591-.3592-.5537-.838-.5537-1.4067v-5.3275c0-.5687.1796-1.0475.5537-1.4067.3591-.3592.838-.5537,1.4067-.5537h6.1057v-12.9148c0-.5687.1946-1.0475.5837-1.4067s.853-.5537,1.3618-.5537h7.677c.5687,0,1.0476.1796,1.4067.5537.3591.3592.5537.838.5537,1.4067v12.9148h9.7871c.5238,0,.9727.1796,1.3319.5537.3591.3592.5537.838.5537,1.4067v5.3275c0,.5687-.1796,1.0475-.5537,1.4067-.3591.3592-.8081.5537-1.3319.5537h-9.7871v15.5037c0,1.9903.3591,3.5317,1.0625,4.6541s1.9454,1.6761,3.7113,1.6761h5.7166c.5238,0,.9578.1796,1.3319.5537.3591.3592.5537.8081.5537,1.3319v5.7914c0,.5687-.1796,1.0475-.5537,1.4067-.3591.3592-.8081.5537-1.3319.5537h-6.7941Z"></path>
    <path class="cls-2" d="m598.014,236.9699c-4.3249,0-7.9614-.7183-10.8795-2.155-2.9182-1.4366-5.1479-3.4868-6.6893-6.1506s-2.3944-5.7615-2.5441-9.3232c-.0599-1.0475-.0748-2.2298-.0748-3.5617s.0299-2.4842.0748-3.4868c.1497-3.6066,1.0476-6.7193,2.6638-9.3531s3.8909-4.6691,6.809-6.1057c2.9182-1.4366,6.4649-2.155,10.6401-2.155,4.1303,0,7.6471.7183,10.5652,2.155s5.1928,3.4719,6.809,6.1057,2.4992,5.7465,2.6638,9.3531c.1048.9877.1497,2.155.1497,3.4868s-.0599,2.5141-.1497,3.5617c-.1497,3.5467-1.0027,6.6594-2.5441,9.3232s-3.7711,4.7139-6.6893,6.1506c-2.918,1.4366-6.5246,2.155-10.8046,2.155Zm0-8.6198c2.559,0,4.4895-.7931,5.7914-2.3944,1.3019-1.5863,2.0053-3.9208,2.1101-7.0036.0449-.7782.0748-1.8257.0748-3.1277s-.0299-2.3495-.0748-3.1277c-.1048-3.0229-.8081-5.3425-2.1101-6.9737-1.3019-1.6162-3.2324-2.4243-5.7914-2.4243s-4.5045.8081-5.8363,2.4243c-1.3319,1.6162-2.0502,3.9358-2.155,6.9737-.0599.7782-.0748,1.8257-.0748,3.1277s.0299,2.3495.0748,3.1277c.1048,3.0828.8231,5.4173,2.155,7.0036,1.3468,1.6013,3.2923,2.3944,5.8363,2.3944Z"></path>
    <path class="cls-2" d="m628.318,236.1767c-.5238,0-.9727-.1796-1.3319-.5537-.3741-.3592-.5537-.838-.5537-1.4067v-36.7838c0-.5238.1796-.9727.5537-1.3618.3591-.3891.8081-.5836,1.3319-.5836h7.677c.5238,0,.9727.1946,1.3618.5836s.5837.853.5837,1.3618v3.1277c1.3019-1.6162,2.9032-2.8733,4.8187-3.7562,1.9005-.8829,4.1154-1.3319,6.6145-1.3319h3.3671c.5238,0,.9578.1796,1.3319.5537.3591.3592.5537.838.5537,1.4067v6.7342c0,.5687-.1796,1.0475-.5537,1.4067-.3591.3592-.8081.5537-1.3319.5537h-6.8839c-2.3046,0-4.1004.6435-5.4023,1.9155s-1.9604,3.0978-1.9604,5.4472v20.7414c0,.5687-.1796,1.0475-.5537,1.4067s-.838.5537-1.4067.5537h-8.2158v-.015Z"></path>
    <path class="cls-2" d="m667.9302,251.0519c-.419,0-.7931-.1497-1.1374-.4639-.3442-.3143-.5088-.7034-.5088-1.1673,0-.1048.0299-.2544.0748-.434s.1347-.4041.2394-.6734l6.1057-14.6357-15.0248-35.452c-.1497-.419-.2394-.7632-.2394-1.0176.0449-.4639.2394-.868.5537-1.2122s.7034-.5088,1.1673-.5088h7.5872c.6734,0,1.1673.1646,1.4815.5088s.5537.6884.7034,1.0625l9.7122,24.2731,9.9367-24.2731c.2095-.419.4639-.7782.7782-1.0924s.8081-.4639,1.4815-.4639h7.4376c.4639,0,.8679.1646,1.2122.5088s.5088.7183.5088,1.1373c0,.2694-.1048.6285-.3143,1.0924l-22.1331,51.2549c-.1497.419-.404.7782-.7482,1.0924-.3442.3143-.853.4639-1.5264.4639h-7.3478Z"></path>
  </g>
</svg>
